<?xml version="1.0" encoding="UTF-8" standalone="no"?>
<!-- Generator: Adobe Illustrator 15.0.0, SVG Export Plug-In . SVG Version: 6.00 Build 0)  -->

<svg
   xmlns:dc="http://purl.org/dc/elements/1.1/"
   xmlns:cc="http://creativecommons.org/ns#"
   xmlns:rdf="http://www.w3.org/1999/02/22-rdf-syntax-ns#"
   xmlns:svg="http://www.w3.org/2000/svg"
   xmlns="http://www.w3.org/2000/svg"
   xmlns:sodipodi="http://sodipodi.sourceforge.net/DTD/sodipodi-0.dtd"
   xmlns:inkscape="http://www.inkscape.org/namespaces/inkscape"
   version="1.1"
   id="Layer_1"
   x="0px"
   y="0px"
   width="110.19304"
   height="141.01379"
   viewBox="0 0 110.19304 141.01379"
   enable-background="new 0 0 841.89 595.28"
   xml:space="preserve"
   inkscape:version="0.91 r13725"
   sodipodi:docname="suapapa_body_color.svg"><metadata
     id="metadata27"><rdf:RDF><cc:Work
         rdf:about=""><dc:format>image/svg+xml</dc:format><dc:type
           rdf:resource="http://purl.org/dc/dcmitype/StillImage" /><dc:title></dc:title></cc:Work></rdf:RDF></metadata><defs
     id="defs25" /><sodipodi:namedview
     pagecolor="#ffffff"
     bordercolor="#666666"
     borderopacity="1"
     objecttolerance="10"
     gridtolerance="10"
     guidetolerance="10"
     inkscape:pageopacity="0"
     inkscape:pageshadow="2"
     inkscape:window-width="1650"
     inkscape:window-height="1014"
     id="namedview23"
     showgrid="false"
     showguides="false"
     fit-margin-top="0"
     fit-margin-left="0"
     fit-margin-right="0"
     fit-margin-bottom="0"
     inkscape:zoom="1.1213358"
     inkscape:cx="75.994048"
     inkscape:cy="103.75596"
     inkscape:window-x="0"
     inkscape:window-y="560"
     inkscape:window-maximized="0"
     inkscape:current-layer="Layer_1"><inkscape:grid
       type="xygrid"
       id="grid3355"
       originx="-366.68081"
       originy="-226.82636" /></sodipodi:namedview><g
     id="g3"
     transform="translate(-366.68079,-227.43985)"><path
       d="m 458.429,246.25 c -6.849,-13.96 -18.931,-21.379 -38.999,-18 -6.641,1.118 -13.12,3.771 -17.91,5.935 -11.661,5.267 -27.523,14.248 -32.09,23.065 -6.744,13.02 0.484,21.112 5,29 -8.539,9.55 0.453,26.007 13,27 4.62,0.365 8.697,-2.24 14,-3 6.221,3.447 13.34,6.686 18.465,8.186 -1.285,2.184 -0.375,12 -0.5,19.875 -5.875,2.625 -2.027,7.684 2.383,7.75 0.149,5.184 0.594,10.564 1.867,14.625 -2.121,1.002 -4.061,4.602 -2.215,6.564 5.788,3.408 10.465,-0.939 10.715,-6.564 3.291,-0.043 6.125,0.125 10.285,-0.436 2.179,4.123 6.965,8.936 11.84,5.436 2.875,-3.25 -1.4,-4.846 -2.375,-6.875 0.125,-3.25 1.028,-10.422 0,-15.25 3.466,1.934 6.033,0.803 6.454,-3.168 -0.454,-2.957 -2.657,-2.1 -3.704,-4.082 -2.983,-5.652 -2.839,-14.801 -4.216,-22.061 8.257,-9.076 10.216,-24.45 13,-39 4.757,-2.776 11.558,-4.92 13,-11 2.557,-10.778 -6.236,-21.579 -18,-18 z"
       id="path5"
       inkscape:connector-curvature="0"
       style="clip-rule:evenodd;fill:#d77f29;fill-rule:evenodd" /><path
       d="m 378.43,290.25 c 0.957,0.844 2.988,1.049 2.849,2.518 -0.334,3.5 0.98,10.695 5.331,11.542 5.835,1.705 9.268,-3.389 9.82,2.939 -11.929,6.081 -24.944,-4.782 -18,-16.999 z"
       id="path7"
       inkscape:connector-curvature="0"
       style="clip-rule:evenodd;fill:#f1c9a1;fill-rule:evenodd" /><path
       d="m 388.43,286.25 c 0.849,-1.482 2.349,-2.648 5,-2 3.771,1.228 -1.152,8.518 6,9 3.412,-0.255 5.193,-2.14 5,-6 2.967,1.365 5.223,3.435 6,7 -5.051,6.496 -23.961,4.345 -22,-8 z"
       id="path9"
       inkscape:connector-curvature="0"
       style="clip-rule:evenodd;fill:#ffffff;fill-rule:evenodd" /><path
       d="m 447.307,339.891 c -1.848,0.375 0.228,6.795 0.408,9.17 0.18,2.375 0.907,6.115 -1.195,7 -2.375,1 -4.742,0.781 -5.117,-0.113 -0.375,-0.894 -3.049,-13.262 -3.035,-13.137 0.014,0.125 -3.098,-0.75 -3.223,1 -0.125,1.75 0.375,11.436 -0.125,12.592 -0.5,1.158 -5.375,1.158 -6.125,0.158 -0.75,-1 -1.375,-13 -1.25,-14.5 0.125,-1.5 -1.485,-4.875 -2.867,-5.75 -1.383,-0.875 -2.118,-14.375 0,-15.25 2.117,-0.875 3.672,-0.26 4.652,-0.125 0,0 4.465,0.75 7.215,0 2.75,-0.75 6.544,-1.859 8.125,-1.875 2.945,-0.029 3,5.875 3,5.875 0,0 1.928,10.383 2.178,11.758 0.25,1.375 -0.794,2.822 -2.641,3.197 z"
       id="path11"
       inkscape:connector-curvature="0"
       style="clip-rule:evenodd;fill:#836f51;fill-rule:evenodd" /><path
       d="m 446.429,313.25 c -17.773,9.639 -37.372,-2.475 -48.999,-11 5.369,-1.5 15.467,0.518 17,-7 2.578,-12.646 -25.765,-22.474 -31,-7 -5.502,-3.946 -11.15,-12.694 -8,-22 3.541,1.524 2.036,15.453 7,14 2.181,-0.982 -2.982,-10.42 -2.069,-14.065 3,2.167 4.25,12.5 8.069,11.065 2.848,-2.232 -4.031,-7.941 -2,-15 3.23,3.437 3.848,12.851 8,12 3.098,-2.065 -3.983,-11.89 -3,-17 4.115,2.884 5.015,12.018 10,11 2.515,-2.148 -4.314,-10.14 -6,-15 4.098,-0.648 5.515,7.851 10,10 1.265,0.435 1.848,0.102 2,-1 -1.011,-6.989 -7.595,-8.405 -8,-16 6.189,2.476 8.193,8.334 11.68,13.515 2.585,2.003 4.168,0.253 4.32,-1.515 -2.526,-5.808 -6.465,-10.202 -11,-14 7.238,-2.223 11.431,7.935 17,10 1.285,0.497 2.021,-0.148 2,-1 -1.462,-5.872 -6.652,-9.107 -11.09,-12.003 5.813,-3.438 14.938,6.316 16.09,7.003 2.264,1.351 2.817,-0.146 2.672,-0.908 -0.436,-2.289 -8.559,-8.034 -9.672,-11.092 9.313,0.021 12.307,6.358 20,8 2.515,-2.981 -4.158,-5.842 -6,-9 6.59,-1.472 17.248,8.19 19.999,17 -4.317,-1.482 -13.317,-1.815 -17.999,5 -3.243,9.232 -5.744,25.259 5,28 8.434,-2.565 12.848,-9.151 14.999,-18 2.635,17.64 -3.637,35.027 -11,46 z"
       id="path13"
       inkscape:connector-curvature="0"
       style="clip-rule:evenodd;fill:#f1c9a1;fill-rule:evenodd" /><path
       d="m 443.43,259.25 c 0.402,-2.931 5.098,-3.69 6.999,-3 6.875,7.63 0.28,23.038 -8.999,24 -1.881,-3.57 -3.521,-6.446 -2,-11 4.18,4.888 10.555,1.185 10.999,-4 -0.445,-2.982 -2.861,-5.805 -6.999,-6 z"
       id="path15"
       inkscape:connector-curvature="0"
       style="clip-rule:evenodd;fill:#ffffff;fill-rule:evenodd" /><path
       d="m 463.429,270.25 c 0.028,-1.565 -0.737,-2.975 -0.15,-3.981 1.377,-2.362 4.746,-3.682 4.15,-8.019 -1.817,-4.314 -5.009,-3.025 -7.484,-4.314 -1.03,-0.537 -0.698,-1.935 -0.516,-3.686 14.155,-6.188 17.74,19.287 4,20 z"
       id="path17"
       inkscape:connector-curvature="0"
       style="clip-rule:evenodd;fill:#f1c9a1;fill-rule:evenodd" /><path
       d="m 439.43,294.25 c 0.069,5.857 -6.635,8.187 -10,5 3.164,-1.54 6.386,-7.099 10,-5 z"
       id="path19"
       inkscape:connector-curvature="0"
       style="clip-rule:evenodd;fill:#836f51;fill-rule:evenodd" /><path
       d="m 447.715,303.057 c -3.671,4.326 -16.48,12.313 -18.82,7.004 1.299,-3.459 11.633,-5.709 15.535,-9.811 2.278,-0.279 3.965,0.936 3.285,2.807 z"
       id="path21"
       inkscape:connector-curvature="0"
       style="clip-rule:evenodd;fill:#836f51;fill-rule:evenodd" /></g></svg>