<?xml version="1.0" encoding="UTF-8" standalone="no"?>
<!-- Generator: Adobe Illustrator 15.0.0, SVG Export Plug-In . SVG Version: 6.00 Build 0)  -->

<svg
   xmlns:dc="http://purl.org/dc/elements/1.1/"
   xmlns:cc="http://creativecommons.org/ns#"
   xmlns:rdf="http://www.w3.org/1999/02/22-rdf-syntax-ns#"
   xmlns:svg="http://www.w3.org/2000/svg"
   xmlns="http://www.w3.org/2000/svg"
   xmlns:sodipodi="http://sodipodi.sourceforge.net/DTD/sodipodi-0.dtd"
   xmlns:inkscape="http://www.inkscape.org/namespaces/inkscape"
   version="1.1"
   id="Layer_1"
   x="0px"
   y="0px"
   width="130.19405"
   height="113.8308"
   viewBox="0 0 130.19404 113.8308"
   enable-background="new 0 0 841.89 595.28"
   xml:space="preserve"
   inkscape:version="0.48.4 r9939"
   sodipodi:docname="suapapa_face_color.svg"><metadata
     id="metadata25"><rdf:RDF><cc:Work
         rdf:about=""><dc:format>image/svg+xml</dc:format><dc:type
           rdf:resource="http://purl.org/dc/dcmitype/StillImage" /></cc:Work></rdf:RDF></metadata><defs
     id="defs23" /><sodipodi:namedview
     pagecolor="#ffffff"
     bordercolor="#666666"
     borderopacity="1"
     objecttolerance="10"
     gridtolerance="10"
     guidetolerance="10"
     inkscape:pageopacity="0"
     inkscape:pageshadow="2"
     inkscape:window-width="681"
     inkscape:window-height="480"
     id="namedview21"
     showgrid="false"
     fit-margin-top="10"
     fit-margin-left="10"
     fit-margin-right="10"
     fit-margin-bottom="10"
     inkscape:zoom="0.39645207"
     inkscape:cx="62.650206"
     inkscape:cy="34.162585"
     inkscape:window-x="987"
     inkscape:window-y="143"
     inkscape:window-maximized="0"
     inkscape:current-layer="Layer_1" /><g
     id="g3"
     transform="translate(-358.2948,-217.97179)"><path
       clip-rule="evenodd"
       d="m 460.043,246.782 c -6.849,-13.961 -18.931,-21.379 -38.999,-18 -6.641,1.117 -13.12,3.771 -17.91,5.934 -11.661,5.268 -27.523,14.248 -32.09,23.066 -6.744,13.02 0.484,21.111 5,29 -8.539,9.549 0.453,26.008 13,27 4.62,0.365 8.697,-2.24 14,-3 6.221,3.445 13.34,6.684 18.465,8.184 -0.01,0.016 -0.016,0.041 -0.025,0.059 3.377,1.123 9.376,2.879 13.592,2.773 6.168,-0.156 12.592,-1.822 16.968,-7.016 8.257,-9.078 10.216,-24.451 13,-39 4.757,-2.777 11.558,-4.92 13,-11 2.557,-10.779 -6.236,-21.58 -18.001,-18 z"
       id="path5"
       inkscape:connector-curvature="0"
       style="fill:#d77f29;fill-rule:evenodd" /><path
       clip-rule="evenodd"
       d="m 380.044,290.782 c 0.957,0.844 2.988,1.049 2.849,2.518 -0.334,3.5 0.98,10.693 5.331,11.543 5.835,1.703 9.268,-3.391 9.82,2.939 -11.929,6.078 -24.943,-4.783 -18,-17 z"
       id="path7"
       inkscape:connector-curvature="0"
       style="fill:#f1c9a1;fill-rule:evenodd" /><path
       clip-rule="evenodd"
       d="m 390.044,286.782 c 0.849,-1.482 2.349,-2.648 5,-2 3.771,1.227 -1.152,8.518 6,9 3.412,-0.256 5.193,-2.141 5,-6 2.967,1.365 5.223,3.434 6,7 -5.051,6.496 -23.961,4.344 -22,-8 z"
       id="path9"
       inkscape:connector-curvature="0"
       style="fill:#ffffff;fill-rule:evenodd" /><path
       clip-rule="evenodd"
       d="m 448.043,313.782 c -17.773,9.637 -37.372,-2.475 -48.999,-11 5.369,-1.502 15.467,0.518 17,-7 2.578,-12.646 -25.765,-22.475 -31,-7 -5.502,-3.947 -11.15,-12.695 -8,-22 3.541,1.523 2.036,15.453 7,14 2.181,-0.982 -2.982,-10.42 -2.069,-14.066 3,2.168 4.25,12.5 8.069,11.066 2.848,-2.232 -4.031,-7.941 -2,-15 3.23,3.436 3.848,12.85 8,12 3.098,-2.066 -3.983,-11.891 -3,-17 4.115,2.883 5.015,12.018 10,11 2.515,-2.148 -4.314,-10.141 -6,-15 4.098,-0.648 5.515,7.85 10,10 1.265,0.434 1.848,0.102 2,-1 -1.011,-6.99 -7.595,-8.406 -8,-16 6.189,2.475 8.193,8.334 11.68,13.514 2.585,2.004 4.168,0.254 4.32,-1.514 -2.526,-5.809 -6.465,-10.203 -11,-14 7.238,-2.223 11.431,7.934 17,10 1.285,0.496 2.021,-0.148 2,-1 -1.462,-5.873 -6.652,-9.107 -11.09,-12.004 5.813,-3.438 14.938,6.316 16.09,7.004 2.264,1.35 2.817,-0.146 2.672,-0.908 -0.436,-2.289 -8.559,-8.035 -9.672,-11.092 9.313,0.02 12.307,6.357 20,8 2.515,-2.982 -4.158,-5.842 -6,-9 6.59,-1.473 17.248,8.189 19.999,17 -4.317,-1.482 -13.317,-1.816 -17.999,5 -3.243,9.232 -5.744,25.258 5,28 8.434,-2.566 12.848,-9.152 14.999,-18 2.636,17.639 -3.637,35.026 -11,46 z"
       id="path11"
       inkscape:connector-curvature="0"
       style="fill:#f1c9a1;fill-rule:evenodd" /><path
       clip-rule="evenodd"
       d="m 445.044,259.782 c 0.402,-2.932 5.098,-3.691 6.999,-3 6.875,7.629 0.28,23.037 -8.999,24 -1.881,-3.57 -3.521,-6.447 -2,-11 4.18,4.887 10.555,1.184 10.999,-4 -0.444,-2.982 -2.86,-5.806 -6.999,-6 z"
       id="path13"
       inkscape:connector-curvature="0"
       style="fill:#ffffff;fill-rule:evenodd" /><path
       clip-rule="evenodd"
       d="m 465.043,270.782 c 0.028,-1.566 -0.737,-2.975 -0.15,-3.982 1.377,-2.361 4.746,-3.682 4.15,-8.018 -1.817,-4.314 -5.009,-3.025 -7.484,-4.314 -1.03,-0.537 -0.698,-1.936 -0.516,-3.686 14.155,-6.189 17.74,19.285 4,20 z"
       id="path15"
       inkscape:connector-curvature="0"
       style="fill:#f1c9a1;fill-rule:evenodd" /><path
       clip-rule="evenodd"
       d="m 441.044,294.782 c 0.069,5.857 -6.635,8.188 -10,5 3.164,-1.541 6.387,-7.099 10,-5 z"
       id="path17"
       inkscape:connector-curvature="0"
       style="fill:#836f51;fill-rule:evenodd" /><path
       clip-rule="evenodd"
       d="m 449.329,303.589 c -3.671,4.326 -16.48,12.313 -18.82,7.002 1.299,-3.457 11.633,-5.707 15.535,-9.809 2.278,-0.279 3.965,0.934 3.285,2.807 z"
       id="path19"
       inkscape:connector-curvature="0"
       style="fill:#836f51;fill-rule:evenodd" /></g></svg>